<svg viewBox="0 0 43.077 60.543" xmlns="http://www.w3.org/2000/svg"><path fill="#fff" d="M5.499 15.018l34.106-1.316-3.18 40.577-15.682 4.387L8.06 53.511z"></path><path fill="#0e6fb8" d="M39.295 55.618l-4.041 1.13q-6.667 1.866-13.334 3.737a1.286 1.286 0 01-.729.011q-8.595-2.412-17.2-4.817c-.058-.016-.114-.04-.2-.072-.058-.6-.122-1.2-.173-1.8-.168-1.984-.327-3.968-.5-5.952q-.271-3.208-.556-6.415c-.2-2.295-.412-4.583-.612-6.878-.146-1.673-.275-3.348-.421-5.021-.168-1.937-.35-3.872-.518-5.808-.174-2.015-.332-4.03-.506-6.045-.165-1.921-.34-3.842-.508-5.745l.043-.053c.01-.011.024-.028.036-.028.108-.008.217-.018.327-.018q21.271 0 42.542.011c.026 0 .052.03.129.074l-3.779 43.689zm-17.762-34.8c-.187.005-.374.015-.561.015H8.06c.14 1.843.3 3.625.47 5.448h10.7c0 .025.009.051.014.075L8.977 31.494c.164 1.9.327 3.769.49 5.674h11.522c.187 0 .373.014.558.021q0 3.919-.006 7.838a1.327 1.327 0 01-.011.371c-.025.083-.128.14-.2.211l-4.359-1.19c-.462-.127-.923-.257-1.394-.388l-.312-4.229H9.692l.719 8.239 11.131 3.084v5.632c.187-.041.34-.066.487-.106q2.6-.708 5.2-1.419 3.971-1.078 7.941-2.149c.359-.1.354-.1.373-.464.034-.557.065-1.115.114-1.671.08-.894.178-1.786.258-2.681.047-.524.062-1.053.112-1.577.111-1.172.245-2.341.351-3.512.081-.9.134-1.793.2-2.689q.041-.532.093-1.064c.086-.831.187-1.661.261-2.494.079-.9.133-1.792.2-2.688.032-.417.068-.835.107-1.25.055-.586.114-1.171.168-1.757.039-.432.07-.865.107-1.3q.047-.533.1-1.065c.085-.878.178-1.756.256-2.634.047-.525.06-1.052.11-1.578.111-1.171.246-2.34.352-3.511.083-.911.129-1.825.2-2.736.04-.477.118-.952.16-1.429.039-.442.054-.887.079-1.325-.576-.106-16.89-.077-17.251.038z"></path><path fill="#ffffff" d="M26.269 4.948V.003h7.572v2.109h-5.387v.914h5.4v4.977H26.28v-2.12h5.4v-.924c-.421-.025-.868-.008-1.312-.01s-.9 0-1.354 0h-2.748z"></path><path fill="#ffffff" d="M19.682 2.095v.934h5.39v4.98h-7.533v-2.12h5.387V4.96h-5.4V.001h7.556v2.095z"></path><path fill="#ffffff" d="M16.315 2.121h-5.4v3.756h5.405v2.122H8.768v-8h7.547z"></path><path fill="#3c9ed8" d="M21.546 51.121l11.117-3.083 1.416-16.287c-.6-.032-1.172-.012-1.74-.016s-1.121 0-1.682 0h-6.789l-.026-.09c.128-.07.253-.145.383-.209 3.28-1.64 6.556-3.289 9.85-4.909a.893.893 0 00.546-.86c.1-1.333.233-2.663.342-3.993.022-.259 0-.522 0-.841H22.094c-.187 0-.374-.011-.561-.017v-5.121c.36-.115 16.676-.144 17.257-.039-.025.439-.039.883-.079 1.325-.042.477-.12.952-.159 1.429-.076.911-.123 1.825-.2 2.735-.106 1.172-.241 2.34-.352 3.511-.05.525-.064 1.053-.111 1.578-.078.878-.171 1.755-.256 2.634q-.053.531-.1 1.064c-.037.432-.068.865-.108 1.3-.054.586-.113 1.171-.168 1.756-.039.416-.075.833-.107 1.25-.069.9-.123 1.794-.2 2.689-.075.833-.175 1.663-.261 2.495q-.055.531-.094 1.064c-.068.9-.121 1.793-.2 2.689-.106 1.171-.24 2.34-.351 3.512-.049.524-.065 1.052-.112 1.577-.08.894-.178 1.787-.258 2.681-.049.556-.08 1.113-.114 1.67-.021.365-.016.367-.373.465l-7.94 2.148q-2.6.707-5.2 1.419c-.147.04-.3.066-.487.106z"></path><path fill="#3c9ed8" d="M21.548 37.184l3.962-.016h2.472l-.481 6.855c-.489.14-.975.286-1.465.42q-2.109.584-4.219 1.159c-.159.043-.319.15-.481 0 .068-.07.172-.128.2-.211a1.3 1.3 0 00.011-.371q-.001-3.914.001-7.836z"></path></svg>