<svg viewBox="0 0 43.076 60.641" xmlns="http://www.w3.org/2000/svg"><path fill="#fff" d="M8.066 53.181L4.039 17.444l10.324-1.758h26.944l-2.692 37.5-13.808 5.265z"></path><path fill="#e25839" d="M0 11.861h43.075c.075.465-3.452 41.819-3.738 43.858l-1.773.5q-7.836 2.191-15.673 4.379a1.157 1.157 0 01-.587.015q-8.671-2.411-17.338-4.841a1.275 1.275 0 01-.177-.088c-.052-.574-.108-1.175-.161-1.778q-.224-2.514-.443-5.028c-.14-1.63-.271-3.261-.412-4.891s-.29-3.259-.432-4.888c-.107-1.226-.206-2.453-.312-3.68q-.213-2.467-.432-4.934-.162-1.863-.32-3.727-.213-2.468-.428-4.935C.74 20.55.636 19.276.525 18.003Q.315 15.582.1 13.162c-.035-.42-.064-.839-.1-1.301zm21.594 25.393v8.462a3.24 3.24 0 01-.41-.062c-1.154-.317-2.305-.643-3.456-.962-.7-.195-1.406-.386-2.123-.583-.1-1.432-.206-2.84-.309-4.262H9.714l.717 8.248c.115.044.2.083.287.109l4.448 1.227q3.212.89 6.422 1.786v5.591a2.408 2.408 0 00.368-.03q.811-.205 1.62-.424 2.022-.545 4.043-1.093c1.527-.414 3.053-.833 4.58-1.247.974-.263 1.949-.515 2.923-.781.374-.1.47-.221.5-.573s.069-.709.094-1.064c.037-.542.061-1.084.1-1.626.027-.386.067-.772.1-1.157.058-.616.118-1.232.175-1.849.038-.416.068-.834.108-1.251.055-.554.122-1.108.172-1.663.043-.494.058-.99.1-1.484.083-.863.191-1.724.267-2.586.078-.9.129-1.794.2-2.69.028-.371.063-.741.1-1.111.088-.862.187-1.724.266-2.586.047-.525.062-1.053.1-1.579q.041-.579.1-1.157c.052-.492.127-.982.172-1.476.047-.509.064-1.021.1-1.531q.047-.625.109-1.251c.051-.507.121-1.014.165-1.522.047-.525.062-1.053.1-1.579.053-.647.121-1.294.18-1.942.039-.432.064-.866.109-1.3.047-.461.122-.92.168-1.381q.1-1.04.183-2.083c.028-.364.034-.73.051-1.109H21.588v5.171c-.187.006-.375.02-.559.02h-12.4c-.18 0-.359.009-.561.015l1.421 16.338h11.549c.183.002.369.018.556.027z"></path><path fill="#ffffff" d="M24.688 8.061h-2.62V.023h2.612l1.871 3.029c.273-.438.508-.815.742-1.194.327-.53.65-1.061.978-1.591.082-.13.145-.267.344-.267.806.007 1.612 0 2.433 0v8.045h-2.611v-3.79l-.09-.022-1.791 2.9c-.622-1-1.216-1.958-1.867-3.012z"></path><path fill="#ffffff" d="M6.634 2.822H9.45v-2.8h2.633v8.014h-2.61V5.491H6.661v2.558H4.038V.036h2.6z"></path><path fill="#ffffff" d="M15.622 8.041v-5.4h-2.335V.029h7.563v2.6h-2.565v5.413z"></path><path fill="#ffffff" d="M32.267.025h2.585v5.411h3.766v2.611h-6.353z"></path><path fill="#f37248" d="M21.589 51.216q2.176-.612 4.354-1.222 3.211-.893 6.426-1.778c.1-.029.206-.067.348-.113l1.422-16.338h-11.9c-.187 0-.375-.014-.559-.021a4.01 4.01 0 01-.087-.592c-.009-1.606-.006-3.212-.006-4.819.187-.005.374-.016.561-.016h12.466l.477-5.441H22.144c-.187 0-.374-.014-.561-.02v-5.171h17.264c-.016.379-.023.745-.051 1.109q-.081 1.043-.183 2.083c-.047.461-.119.92-.168 1.381-.047.432-.07.866-.109 1.3-.058.648-.127 1.294-.18 1.942-.042.526-.058 1.053-.1 1.579-.044.508-.114 1.014-.165 1.522q-.064.625-.108 1.251c-.037.51-.055 1.022-.1 1.531-.044.493-.119.983-.172 1.475q-.062.579-.1 1.157c-.038.526-.052 1.054-.1 1.579-.078.863-.177 1.724-.265 2.586-.037.369-.073.74-.1 1.111-.067.9-.118 1.794-.2 2.69-.076.862-.185 1.723-.267 2.586-.047.493-.062.99-.1 1.484-.047.555-.117 1.108-.172 1.663-.04.416-.07.834-.108 1.25-.056.617-.117 1.233-.175 1.849-.036.385-.075.771-.1 1.157-.037.542-.062 1.084-.1 1.626-.024.355-.062.709-.094 1.064s-.128.472-.5.573c-.974.264-1.949.518-2.923.781-1.527.414-3.053.833-4.58 1.247q-2.021.549-4.043 1.093-.808.218-1.62.424a2.345 2.345 0 01-.368.03z"></path><path fill="#f37248" d="M21.594 37.253c.421-.007.842-.02 1.26-.021h5.171l-.475 6.831a1.51 1.51 0 01-.238.112q-2.694.748-5.392 1.491a2.743 2.743 0 01-.322.049q-.003-4.229-.004-8.462z"></path><path fill="#e25839" d="M21.588 26.332q0 2.41.006 4.818a3.9 3.9 0 00.087.592c-.172.008-.342.022-.515.022h-6.421l-.383-5.417a2.289 2.289 0 01.257-.032h6.784c.061.001.124.011.185.017z"></path></svg>