<svg viewBox="0 0 89.58 67.19" xmlns="http://www.w3.org/2000/svg"><path fill="#ffffff" d="M27.43 43.8l-3.66 2.05c-.42.23-.82.48-1.26.74.09.19.17.37.24.55a13.65 13.65 0 01.86 6.17 14.29 14.29 0 01-1.74 6.17A14.49 14.49 0 0111.3 67a11.35 11.35 0 01-5.05-.28 4.11 4.11 0 01-2.46-2.21 8 8 0 01-.47-6.24 10.39 10.39 0 012.5-4.23 31.41 31.41 0 016.8-5.24c1.5-.89 3.06-1.7 4.59-2.54l.35-.2a3.09 3.09 0 00-.34-.31C15.49 44.53 13.77 43.27 12 42a58.82 58.82 0 01-6.68-5.19 17.42 17.42 0 01-4.78-6.69C.32 29.5.18 28.85 0 28.21v-1.54l.18-.91a16.83 16.83 0 012.59-6A34.22 34.22 0 0111 11.4a64.36 64.36 0 0114.1-7.9A41.2 41.2 0 0138.19.11c.29 0 .59-.07.88-.11h3.08c.35 0 .7.1 1.06.13A20.2 20.2 0 0151 2.28a10.14 10.14 0 014.33 4.1 8.8 8.8 0 011 3.43 15 15 0 01-2.65 9.73 23.25 23.25 0 01-13.24 9.86 33.71 33.71 0 01-7.25 1.42 20 20 0 01-6.77-.45A8.9 8.9 0 0121.33 27a6.39 6.39 0 01-.67-1.56.5.5 0 01.23-.64c.27-.14.47 0 .64.2s.43.47.67.68a9.11 9.11 0 004.68 2A17.91 17.91 0 0033 27.5a28.33 28.33 0 007.89-2.64 22.88 22.88 0 008.34-6.94 12 12 0 002.23-5 5.56 5.56 0 00-.78-4.45 6.06 6.06 0 00-2.71-2 14.42 14.42 0 00-4.44-1 31.33 31.33 0 00-11.19 1.38 53.14 53.14 0 00-11.57 5.05 49.8 49.8 0 00-7.11 4.76 23.53 23.53 0 00-5 5.35 11.08 11.08 0 00-1.95 6.55 8.49 8.49 0 001.67 4.57 23.58 23.58 0 004.7 4.66c2 1.59 4 3.16 6 4.78a19.4 19.4 0 011.64 1.75l2.24-1.21 6.5-3.57a1.6 1.6 0 00.46-.4 14.84 14.84 0 015.58-4.61 4.6 4.6 0 012.75-.47 2.7 2.7 0 012.27 2.54 9.09 9.09 0 010 2.85 1.78 1.78 0 000 .25l.28-.18a1.94 1.94 0 012.45.3 1.12 1.12 0 01.23 1.08c-.42 1.6-.86 3.2-1.25 4.8-.36 1.45-.69 2.9-1 4.36a5.48 5.48 0 000 2.45 3.9 3.9 0 00.38-.49c.64-1.25 1.33-2.48 1.91-3.77 1.89-4.17 3.73-8.36 5.6-12.54a20.45 20.45 0 001.29-3.87.92.92 0 01.63-.76 8 8 0 013.96-.29 1.54 1.54 0 01.54.24c.38.24.44.47.31.93-.29 1-.61 1.93-.86 2.91A9.31 9.31 0 0055 38.2a10.34 10.34 0 001.34 3.8c.29-.49.58-.95.85-1.42q1.62-2.9 3.22-5.81a17 17 0 001.77-4.73c.07-.34.21-.66.3-1a.84.84 0 01.6-.62 7.94 7.94 0 014.1-.28 1.91 1.91 0 01.59.29.65.65 0 01.25.8c-.27.8-.51 1.6-.75 2.4a9.9 9.9 0 00-.18 4A15.4 15.4 0 0069 40.47c.73-.29 1.42-.59 2.13-.84a18.4 18.4 0 017.65-.93 13.19 13.19 0 016.71 2.3 9.32 9.32 0 014 5.92 6.07 6.07 0 01-3.68 6.94 1.76 1.76 0 01-.7.17.71.71 0 01-.49-.21c-.16-.2 0-.37.19-.49.43-.33.9-.62 1.32-1a4.35 4.35 0 001.62-3.18 5.63 5.63 0 00-.98-3.15 8.68 8.68 0 00-4.44-3.42 18.7 18.7 0 00-11.7-.12c-.67.23-.67.23-.45.89a8.72 8.72 0 01.53 2.77A5.53 5.53 0 0169.07 50a11.61 11.61 0 01-5 3.16c-.41.13-.84.28-1.27.37a2.09 2.09 0 01-2.61-2.11 8 8 0 011.5-4.42 16.62 16.62 0 013.45-3.89c.24-.2.29-.35.13-.63A21.43 21.43 0 0163 35.74v-.08l-1.18 2.23a66 66 0 01-4 6.55.56.56 0 00-.07.63 10 10 0 01.9 3.93 6 6 0 01-2.18 4.81 11.11 11.11 0 01-7.71 2.68 2.26 2.26 0 01-.81-.17 1.33 1.33 0 01-.86-1.71 5 5 0 011.16-1.85c1.34-1.65 2.71-3.27 4.06-4.91.42-.52.78-1.07 1.19-1.6a.39.39 0 000-.47c-.59-1.31-1.24-2.59-1.73-3.93-.4-1.11-.61-2.29-.92-3.47 0 .09-.09.17-.12.26-1.37 3.39-2.81 6.76-4.49 10-1.06 2-2.16 4.08-3.27 6.1a7.7 7.7 0 01-2.12 2.49 2.09 2.09 0 01-3.43-1 6.66 6.66 0 01-.42-2.46c0-1 .08-2 .12-3-.13.31-.26.67-.42 1-.85 1.76-1.68 3.54-2.57 5.28a3.46 3.46 0 01-1.93 1.79 3.12 3.12 0 01-3.62-1.09 12.26 12.26 0 01-2-4.82 14.44 14.44 0 010-5.52c.21-1.2.55-2.37.83-3.56v-.08zM19.72 48h-.14a44.89 44.89 0 00-8 5.63 9 9 0 00-3.16 5.83c-.16 1.72.53 2.76 2.36 2.7a6.69 6.69 0 002.72-.71 11.48 11.48 0 006.55-8.84 10.85 10.85 0 00-.33-4.61zM31 49.83v.91a6.26 6.26 0 00.51 2.34c.3.61.74.67 1.15.12a7.79 7.79 0 00.92-1.48A83 83 0 0037.59 41a27.48 27.48 0 00.6-2.69c.11-.58-.23-.91-.8-.8a2.63 2.63 0 00-.76.26 6.47 6.47 0 00-2.46 2.27A17 17 0 0031 49.83zm35.79-5.31h-.09l-.11.09a10.89 10.89 0 00-3.17 5.05 3.7 3.7 0 00-.14.82c0 .18.07.31.31.22a5 5 0 003.3-3.42 4.52 4.52 0 00-.15-2.76zm-11.86 4L50.5 53.7c1.61.24 4.5-3.14 4.38-5.16z"></path></svg>